<?xml version="1.0" encoding="UTF-8"?>
<svg id="Capa_1" data-name="Capa 1" xmlns="http://www.w3.org/2000/svg" viewBox="0 0 259.2 259.2">
  <defs>
    <style>
      .cls-1 {
        fill: #003173;
      }

      .cls-2 {
        fill: #003172;
      }

      .cls-3 {
        fill: #b8b5b5;
      }
    </style>
  </defs>
  <path class="cls-1" d="M231.79,129.48c0,57.04-46.24,103.28-103.28,103.28S25.22,186.52,25.22,129.48,71.46,26.19,128.5,26.19s103.28,46.24,103.28,103.28ZM225.31,130.06c0-53.39-43.28-96.67-96.67-96.67S31.98,76.68,31.98,130.06s43.28,96.67,96.67,96.67,96.67-43.28,96.67-96.67Z"/>
  <path class="cls-3" d="M225.31,130.06c0,53.39-43.28,96.67-96.67,96.67S31.98,183.45,31.98,130.06s43.28-96.67,96.67-96.67,96.67,43.28,96.67,96.67ZM222.39,130.09c0-51.78-41.98-93.75-93.75-93.75s-93.75,41.98-93.75,93.75,41.98,93.75,93.75,93.75,93.75-41.98,93.75-93.75Z"/>
  <path class="cls-2" d="M222.39,130.09c0,51.78-41.98,93.75-93.75,93.75s-93.75-41.98-93.75-93.75,41.98-93.75,93.75-93.75,93.75,41.98,93.75,93.75ZM199.97,131.4l-126.12-50.11,63.54,49.27-62.82,48.55,125.4-47.71Z"/>
  <polygon class="cls-3" points="199.97 131.4 74.57 179.11 137.39 130.56 73.85 81.29 199.97 131.4"/>
</svg>