<?xml version="1.0" standalone="no"?>
<!DOCTYPE svg PUBLIC "-//W3C//DTD SVG 20010904//EN"
 "http://www.w3.org/TR/2001/REC-SVG-20010904/DTD/svg10.dtd">
<svg version="1.0" xmlns="http://www.w3.org/2000/svg"
 width="1080.000000pt" height="1080.000000pt" viewBox="0 0 1080.000000 1080.000000"
 preserveAspectRatio="xMidYMid meet">

<g transform="translate(0.000000,1080.000000) scale(0.100000,-0.100000)"
fill="#000000" stroke="none">
<path d="M5140 9703 c-282 -19 -475 -47 -723 -104 -418 -96 -634 -172 -978
-345 -658 -329 -1221 -821 -1627 -1423 -287 -424 -490 -856 -602 -1276 -157
-588 -197 -1175 -119 -1735 49 -350 169 -789 299 -1095 385 -906 1076 -1664
1930 -2118 260 -138 703 -307 1040 -396 347 -92 892 -140 1257 -111 330 26
480 50 823 131 488 115 1042 385 1515 739 517 386 937 885 1236 1465 170 329
271 606 358 975 93 402 114 580 114 995 0 425 -25 629 -128 1031 -93 362 -160
544 -315 853 -107 214 -172 326 -305 526 -255 381 -536 688 -882 963 -539 429
-1164 716 -1841 847 -331 63 -783 97 -1052 78z m430 -313 c600 -37 1115 -172
1610 -420 732 -368 1298 -911 1711 -1645 100 -178 228 -454 282 -610 87 -253
190 -700 212 -926 23 -226 30 -499 16 -596 -6 -45 -16 -150 -21 -235 -10 -171
-14 -194 -76 -466 -82 -359 -156 -576 -299 -867 -439 -893 -1175 -1580 -2116
-1976 -342 -144 -806 -252 -1222 -285 -210 -17 -553 -14 -647 6 -25 5 -116 16
-203 25 -229 23 -352 50 -647 142 -491 153 -966 403 -1347 709 -519 418 -895
924 -1176 1584 -232 543 -324 1001 -321 1590 3 570 134 1145 373 1645 406 847
1040 1497 1862 1909 311 156 556 241 943 327 377 84 706 111 1066 89z"/>
<path d="M4920 9250 c-370 -44 -810 -160 -1110 -292 -797 -351 -1439 -930
-1865 -1683 -141 -247 -314 -659 -364 -865 -149 -616 -174 -1125 -81 -1669
102 -593 318 -1132 638 -1590 358 -514 868 -953 1452 -1250 354 -181 781 -321
1130 -371 626 -90 971 -77 1600 61 173 38 246 62 509 165 242 95 328 138 548
274 310 191 521 357 768 604 440 440 723 886 915 1441 87 253 171 599 190 785
6 63 18 171 26 240 20 176 17 325 -11 630 -25 280 -60 461 -139 738 -256 887
-866 1696 -1656 2197 -421 266 -762 403 -1330 534 -254 58 -298 62 -695 66
-310 4 -383 1 -525 -15z m818 -2895 c1597 -638 2597 -1042 2590 -1047 -7 -4
-42 -17 -78 -29 -75 -25 -439 -162 -650 -244 -80 -31 -278 -105 -440 -165
-162 -59 -425 -159 -585 -223 -159 -63 -495 -193 -745 -287 -250 -95 -601
-228 -779 -296 -178 -69 -381 -145 -450 -168 -69 -24 -166 -60 -216 -80 -49
-20 -213 -82 -365 -138 -151 -55 -340 -127 -420 -160 -155 -63 -430 -170 -469
-183 -40 -12 -16 11 92 87 56 39 210 156 342 258 132 102 296 228 365 280 69
52 231 178 360 280 298 236 1255 973 1335 1027 33 22 70 52 83 65 l22 25 -142
109 c-78 60 -181 141 -228 179 -47 39 -161 129 -255 200 -93 71 -338 261 -544
423 -205 161 -444 345 -530 409 -86 65 -268 205 -406 313 -137 108 -304 235
-370 282 -66 48 -136 101 -155 118 l-35 30 35 -13 c19 -7 1206 -481 2638
-1052z"/>
</g>
</svg>
