<svg xmlns="http://www.w3.org/2000/svg" viewBox="0 0 116.21 31.13"><defs><style>.cls-1{fill:#b7b5b5;}.cls-1,.cls-2,.cls-3,.cls-4{stroke:#000;stroke-miterlimit:10;}.cls-1,.cls-2,.cls-3{stroke-width:0.01px;}.cls-2,.cls-4{fill:#004184;}.cls-3{fill:#b6b5b3;}.cls-4{stroke-width:0.1px;}</style></defs><title>Recurso 1</title><g id="Capa_2" data-name="Capa 2"><g id="Capa_12" data-name="Capa 12"><rect class="cls-1" y="11.51" width="116.16" height="19.62"/><rect class="cls-2" x="1.64" y="13.23" width="112.46" height="16.36"/><g id="Logo"><polygon class="cls-3" points="6.49 15.24 22.79 21.43 6.52 27.49 14.8 21.38 6.49 15.24"/></g><path class="cls-1" d="M38.56,17.32H27.29v8.45H38.56V24.39H31.32V22.24l5.29,0V20.63l-5.35,0,0-2h7.32Z"/><path class="cls-1" d="M40.83,17.26l3.81,0c0,2.07,0,4.15,0,6.22a3.54,3.54,0,0,0,2.45,1.16,3.6,3.6,0,0,0,2.53-1V17.31l3.15,0v6.58l-.22.2a8,8,0,0,1-2.23,1.32l-.23.08a6.86,6.86,0,0,1-.71.17,16.51,16.51,0,0,1-2.32.21,16.39,16.39,0,0,1-3-.24c-.5-.1-1-.24-1-.24-.16-.05-.39-.12-.68-.24a4.6,4.6,0,0,1-1-.5,3.16,3.16,0,0,1-.74-.74Q40.8,20.57,40.83,17.26Z"/><path class="cls-1" d="M64.68,17.2a2.32,2.32,0,0,1,1.7.52,2.46,2.46,0,0,1,.71,1.06,2.27,2.27,0,0,1,0,1.71,2.18,2.18,0,0,1-1.43,1.14,2.46,2.46,0,0,1-1.06.09l1.72,2c.68.69,1.36,1.37,2,2.06h-4l-3-4H58.86l0,4.05-3.24,0,0-8.62Zm-5.85,3.45h4a1.44,1.44,0,0,0-.08-2.34h-4Z"/><path class="cls-1" d="M95.53,25.53,101,17.24h2.9l5.67,8.34-3.29,0L105.2,24l-5.57,0-1.18,1.57Zm8.84-2.94-1.91-3.08-2,3.08Z"/><path class="cls-1" d="M73.51,17.18h5a4.36,4.36,0,0,1,3,1.81,4.23,4.23,0,0,1,.77,2.64,4.38,4.38,0,0,1-1.11,2.58,4.84,4.84,0,0,1-2.28,1.55l-5.64,0a4.17,4.17,0,0,1-3.18-1.66,4.29,4.29,0,0,1-.72-2.27,4.66,4.66,0,0,1,1-3A4.38,4.38,0,0,1,73.51,17.18Zm.18,2.34a1.79,1.79,0,0,0-.48.88l0,2.44a2.08,2.08,0,0,0,.45.8,2,2,0,0,0,.73.52l2.67-.05a2,2,0,0,0,.78-.65,2.1,2.1,0,0,0,.36-.8l0-1.23V20.08a2,2,0,0,0-.43-.56,2,2,0,0,0-.77-.42H74.38A1.74,1.74,0,0,0,73.69,19.52Z"/><path class="cls-1" d="M84,25.65l.08-8.44h10a2.47,2.47,0,0,1,.35,4.9L88.14,22c0,1.22,0,2.44,0,3.66Zm4.1-4.58h4.07a1.16,1.16,0,0,0,.48-.5c0-.07.09-.2.09-.95a2,2,0,0,0-.08-.8,1.05,1.05,0,0,0-.48-.5H88.1C88.1,19.23,88.09,20.15,88.09,21.07Z"/><path class="cls-4" d="M.5.43l5.74,0A2.65,2.65,0,0,1,8.45,3.1a2.62,2.62,0,0,1-2,2.43L9.16,9H6.48L3.82,5.9H2.68L2.62,9,.51,9ZM2.68,4,5.31,4a1,1,0,0,0,0-1.91H2.66Z"/><path class="cls-4" d="M18.25.41H11c0,2.88,0,5.77,0,8.66L18.26,9l0-1.63h-5l0-1.94,4.05,0V3.79l-4,0V2.08h5Z"/><path class="cls-4" d="M19.93.39l7.21,0,0,1.67-5,0V4l4.07,0,0,1.45-4,0c0,1.21,0,2.41,0,3.61l-2.18,0Q19.93,4.72,19.93.39Z"/><path class="cls-4" d="M28.92.42l5.74,0a2.62,2.62,0,0,1,2.21,2.64,2.62,2.62,0,0,1-2,2.43c.91,1.17,1.81,2.34,2.72,3.5L34.91,9,32.24,5.88l-1.13,0L31.05,9H28.93ZM31.11,4l2.62,0a1,1,0,0,0,.79-1,1,1,0,0,0-.83-.95H31.08Z"/><path class="cls-4" d="M63.41.43l5.74,0A2.64,2.64,0,0,1,71.36,3.1a2.62,2.62,0,0,1-2,2.43L72.07,9H69.4L66.73,5.9H65.6L65.53,9,63.42,9ZM65.6,4l2.62,0a1,1,0,0,0,.79-1,1,1,0,0,0-.84-1h-2.6Z"/><path class="cls-4" d="M61.67.4h-7.2c0,2.88,0,5.77,0,8.66l7.21,0V7.38h-5l0-1.94,4.05,0V3.78l-4,0V2.07h5Z"/><path class="cls-4" d="M39.65.42l2.13,0c0,2.89,0,5.77,0,8.65L39.64,9C39.64,6.15,39.65,3.29,39.65.42Z"/><path class="cls-4" d="M52.6,1.69A6.94,6.94,0,0,0,50,.17h-2.4a5,5,0,0,0-4.14,3.66,4,4,0,0,0,0,1.76C43.88,7.72,46.08,9,47.84,9.3a5.79,5.79,0,0,0,1.89,0,6.37,6.37,0,0,0,2.84-1.24l0-3.82H48L48,6l2.41,0V7.09a.75.75,0,0,1-.19.25.9.9,0,0,1-.56.23,3.68,3.68,0,0,1-1.79-.06,3.25,3.25,0,0,1-1.36-.72,2.74,2.74,0,0,1-.92-1.65,2.76,2.76,0,0,1,0-.82,3.06,3.06,0,0,1,1.19-1.76,3.65,3.65,0,0,1,1.44-.66l1.13,0a3.44,3.44,0,0,1,1,.37,3.69,3.69,0,0,1,.75.59Z"/><path class="cls-4" d="M76.86.4H79L83,9,80.48,9l-1-2.34-3.18,0L75.36,9H73Q74.92,4.7,76.86.4ZM78.8,5.05l-.92-2-.82,2Z"/><path class="cls-4" d="M90.27,2.83l1.37-1.15A6,6,0,0,0,88.88.32a5.11,5.11,0,0,0-2.31,0,4.94,4.94,0,0,0-3.73,3.87A4,4,0,0,0,83,6,5.06,5.06,0,0,0,89,9.29,6.57,6.57,0,0,0,92,7.72L90.57,6.46a3.15,3.15,0,0,1-1.81,1.1,2.88,2.88,0,0,1-1.58-.1A3.08,3.08,0,0,1,85.3,3.88,3.1,3.1,0,0,1,87.55,2,3.26,3.26,0,0,1,90.27,2.83Z"/><path class="cls-4" d="M93.14.42h2.13c0,2.88,0,5.76,0,8.65L93.12,9C93.13,6.16,93.13,3.29,93.14.42Z"/><path class="cls-4" d="M106.54,3.73a4.26,4.26,0,0,1,0,1.86,5.09,5.09,0,0,1-5.85,3.77A5.2,5.2,0,0,1,96.5,5.79a4.33,4.33,0,0,1,0-2,5.22,5.22,0,0,1,4-3.6,5.16,5.16,0,0,1,2.22,0A5,5,0,0,1,106.54,3.73Zm-4.35-1.57a3.06,3.06,0,0,0-1.25,0,3,3,0,0,0-2.24,2,2.29,2.29,0,0,0,0,1.14,2.91,2.91,0,0,0,2.34,2,3,3,0,0,0,1.17,0,2.93,2.93,0,0,0,2.13-2.1,2.41,2.41,0,0,0,0-1A2.85,2.85,0,0,0,102.19,2.16Z"/><polygon class="cls-4" points="107.77 0.47 109.9 0.47 114.1 5.69 114.1 0.47 116.17 0.47 116.17 9.01 114.1 9.01 109.99 4.03 109.97 9.01 107.77 9.01 107.77 0.47"/></g></g></svg>