<svg xmlns="http://www.w3.org/2000/svg" viewBox="0 0 25.43 25.49"><defs><style>.cls-1{fill:#b7b3a8;}.cls-1,.cls-2,.cls-3{stroke:#000;stroke-miterlimit:10;stroke-width:0.1px;}.cls-2{fill:#063e7b;}.cls-3{fill:#b6b5b3;}</style></defs><title>Recurso 1</title><g id="Capa_2" data-name="Capa 2"><g id="Capa_12" data-name="Capa 12"><g id="Logo"><path class="cls-1" d="M8,1A12.79,12.79,0,0,1,14.61.18a12.8,12.8,0,0,1,6.2,2.87,13.08,13.08,0,0,1,4,5.88,12.64,12.64,0,0,1,.56,5,12.71,12.71,0,0,1-3.17,7.16,13,13,0,0,1-5.25,3.54,12.76,12.76,0,0,1-4.67.78,13.3,13.3,0,0,1-8.67-3.82,12.38,12.38,0,0,1-2-2.77A12.71,12.71,0,0,1,.17,14.93a14,14,0,0,1,.15-4.59A11.64,11.64,0,0,1,4.63,3,13.25,13.25,0,0,1,8,1Z"/><path class="cls-2" d="M8.32,1.84a11.9,11.9,0,0,1,6.15-.77,11.94,11.94,0,0,1,5.76,2.67A12.09,12.09,0,0,1,23.9,9.21a11.73,11.73,0,0,1,.52,4.67,11.74,11.74,0,0,1-3,6.64,12.12,12.12,0,0,1-9.21,4,12.45,12.45,0,0,1-8-3.55,11.91,11.91,0,0,1-1.89-2.58,12.17,12.17,0,0,1-1.26-3.63,13.36,13.36,0,0,1,.14-4.26A11.48,11.48,0,0,1,2.62,6.64,11.16,11.16,0,0,1,5.2,3.72,12.8,12.8,0,0,1,8.32,1.84Z"/><polygon class="cls-3" points="4.53 6.66 20.83 12.85 4.56 18.9 12.84 12.79 4.53 6.66"/></g></g></g></svg>